<svg width="28" height="27" viewBox="0 0 28 27" fill="none" xmlns="http://www.w3.org/2000/svg">
<path d="M6.6561 0.666504C6.1331 0.666504 5.6171 0.854504 5.1871 1.1975L5.1251 1.2285L5.0941 1.2605L1.9691 4.4795L2.0001 4.5095C1.54157 4.92586 1.21669 5.46874 1.06647 6.0696C0.916259 6.67046 0.947446 7.30236 1.1561 7.8855C1.1601 7.8935 1.1521 7.9085 1.1561 7.9165C2.0041 10.3425 4.1721 15.0265 8.4061 19.2605C12.6561 23.5105 17.4021 25.5925 19.7501 26.5105H19.7811C20.3695 26.705 20.9983 26.7439 21.6062 26.6233C22.2141 26.5027 22.7804 26.2269 23.2501 25.8225L26.4061 22.6665C27.2341 21.8385 27.2341 20.4005 26.4061 19.5725L22.3441 15.5105L22.3121 15.4475C21.4841 14.6195 20.0161 14.6195 19.1871 15.4475L17.1871 17.4475C15.6862 16.7264 14.3056 15.7779 13.0941 14.6355C11.4571 13.0725 10.6211 11.2755 10.3131 10.5725L12.3131 8.5725C13.1531 7.7325 13.1681 6.3345 12.2811 5.5105L12.3121 5.4785L12.2191 5.3855L8.2191 1.2605L8.1881 1.2295L8.1251 1.1975C7.71006 0.858607 7.1919 0.671307 6.6561 0.666504ZM6.6561 2.6665C6.73785 2.67125 6.81534 2.70452 6.8751 2.7605L10.8751 6.8535L10.9691 6.9475C10.9611 6.9395 11.0271 7.0455 10.9061 7.1665L8.4061 9.6665L7.9371 10.1045L8.1571 10.7285C8.1571 10.7285 9.3051 13.8035 11.7191 16.1045L11.9381 16.2915C14.2611 18.4125 17.0001 19.5725 17.0001 19.5725L17.6251 19.8545L20.5941 16.8845C20.7661 16.7135 20.7341 16.7135 20.9061 16.8845L25.0001 20.9805C25.1721 21.1515 25.1721 21.0895 25.0001 21.2605L21.9371 24.3235C21.4771 24.7185 20.9881 24.8005 20.4071 24.6055C18.1411 23.7145 13.7381 21.7805 9.8121 17.8555C5.8551 13.8975 3.7891 9.4095 3.0321 7.2305C2.8791 6.8235 2.9881 6.2225 3.3441 5.9175L3.4061 5.8545L6.4381 2.7615C6.49719 2.70558 6.57392 2.67199 6.6551 2.6665H6.6561Z" fill="#ED1CA6"/>
</svg>
