<svg width="26" height="32" viewBox="0 0 26 32" fill="none" xmlns="http://www.w3.org/2000/svg">
<path d="M25 13.3335C25 22.6668 13 30.6668 13 30.6668C13 30.6668 1 22.6668 1 13.3335C1 10.1509 2.26428 7.09865 4.51472 4.84821C6.76516 2.59778 9.8174 1.3335 13 1.3335C16.1826 1.3335 19.2348 2.59778 21.4853 4.84821C23.7357 7.09865 25 10.1509 25 13.3335Z" stroke="#ED1CA6" stroke-width="2" stroke-linecap="round" stroke-linejoin="round"/>
<path d="M13 17.3335C15.2091 17.3335 17 15.5426 17 13.3335C17 11.1244 15.2091 9.3335 13 9.3335C10.7909 9.3335 9 11.1244 9 13.3335C9 15.5426 10.7909 17.3335 13 17.3335Z" stroke="#ED1CA6" stroke-width="2" stroke-linecap="round" stroke-linejoin="round"/>
</svg>
