<svg width="118" height="26" viewBox="0 0 118 26" fill="none" xmlns="http://www.w3.org/2000/svg">
<path d="M19.6297 25.9761L11.9162 25.835C9.41869 25.7859 6.91503 25.8841 4.4666 25.3748C0.741796 24.6138 0.477929 20.8829 0.201791 17.7533C-0.178667 13.3535 -0.0313932 8.87394 0.686568 4.51095C1.09157 2.06252 2.68704 0.602048 5.15388 0.442501C13.481 -0.134322 21.8633 -0.0668214 30.1721 0.203181C31.0496 0.227727 31.9332 0.362728 32.7984 0.516138C37.0694 1.26478 37.1737 5.49277 37.4498 9.05189C37.726 12.6478 37.6094 16.2622 37.0817 19.8336C36.6582 22.7913 35.8482 25.2704 32.4303 25.5098C28.147 25.8227 23.962 26.0743 19.6665 25.9945C19.6665 25.9761 19.642 25.9761 19.6297 25.9761ZM15.0949 18.4897C18.3226 16.6365 21.489 14.814 24.6984 12.9731C21.4645 11.1199 18.3042 9.29735 15.0949 7.45643V18.4897Z" fill="#FF0000"/>
<path d="M99.52 22.6125C99.3727 23.2139 99.2439 23.6864 99.115 24.1896H96.0959V0.901855H99.6182V9.49284C99.8023 9.25966 99.8943 9.16147 99.9741 9.05715C100.575 8.22874 101.355 7.68873 102.361 7.4801C103.963 7.16714 105.331 7.87283 105.816 9.41307C106.129 10.3703 106.331 11.3951 106.356 12.3954C106.405 14.9665 106.368 17.5315 106.276 20.1027C106.239 20.8882 106 21.692 105.699 22.4284C104.711 24.8584 101.484 25.2266 99.8821 23.1218C99.7839 22.993 99.6918 22.8518 99.52 22.6125ZM99.6918 16.2061V20.4648C99.6918 21.1582 100.06 21.5816 100.753 21.7411C101.435 21.9007 101.987 21.6368 102.263 21.0048C102.38 20.7409 102.496 20.4648 102.502 20.1886C102.57 17.5868 102.631 14.9849 102.65 12.377C102.65 11.8922 102.533 11.389 102.386 10.9165C102.11 10.0635 101.349 9.81193 100.6 10.309C100.035 10.6894 99.6918 11.2294 99.6918 11.9474V16.2061ZM90.119 7.81146H93.807V24.2018H90.929C90.8247 23.5821 90.7204 22.9439 90.5977 22.1952C90.4013 22.4836 90.2847 22.6677 90.162 22.8518C89.2047 24.2325 87.8486 24.705 86.247 24.4534C84.8785 24.2325 84.0563 23.177 83.8722 21.4466C83.8169 20.9311 83.7924 20.4095 83.7924 19.8941C83.7801 16.0588 83.7924 12.2113 83.7924 8.37601V7.79919H87.5233V8.46806C87.5233 12.1745 87.5111 15.8747 87.5356 19.5811C87.5356 20.1088 87.5908 20.655 87.6829 21.1827C87.7872 21.7227 88.1799 21.9191 88.7077 21.8823C89.5606 21.8148 90.1497 21.1827 90.1497 20.3359V8.53556C90.119 8.29624 90.119 8.07533 90.119 7.81146ZM64.7266 7.79919H68.433V8.4926C68.433 12.1806 68.4207 15.8624 68.4452 19.5382C68.4452 20.0659 68.4943 20.612 68.6048 21.1275C68.7459 21.735 69.1018 21.9314 69.7093 21.8516C70.55 21.735 71.0593 21.152 71.0655 20.2991V8.5601V7.82373H74.7535V24.2018H71.8878C71.7834 23.5943 71.6791 22.9684 71.5441 22.1768C71.36 22.453 71.2557 22.6125 71.1514 22.7782C70.1941 24.1834 68.8502 24.6989 67.2118 24.4473C65.8986 24.2509 65.0947 23.2814 64.8493 21.692C64.7818 21.195 64.7327 20.7041 64.7327 20.207C64.7204 16.2245 64.7204 12.2235 64.7204 8.24101L64.7266 7.79919ZM62.8243 16.5497C62.812 17.102 62.7752 17.6543 62.7445 18.2066C62.6034 19.8634 62.5359 22.2136 61.1981 23.4225C60.3452 24.1834 59.2652 24.4596 58.1483 24.4964C57.6513 24.5087 57.1481 24.5087 56.651 24.4412C54.3008 24.0852 53.2085 23.0482 52.8158 20.4648C52.3678 17.4825 52.331 14.4511 52.8649 11.4688C53.4172 8.38215 55.3194 7.28987 58.2772 7.49237C61.0386 7.68873 62.272 9.49898 62.5972 12.0763C62.7752 13.5551 62.8611 15.0524 62.8243 16.5497ZM59.0688 15.9852C59.0688 14.9358 59.0933 13.8804 59.0565 12.8311C59.032 12.2235 58.9522 11.6099 58.8233 11.0085C58.6761 10.3151 58.2342 9.98375 57.682 9.99603C57.142 10.0083 56.7615 10.3397 56.5651 10.984C56.4976 11.2233 56.424 11.4688 56.424 11.7081C56.424 13.3526 56.4117 15.0033 56.3994 16.6479C56.3872 18.182 56.1908 19.7897 56.6756 21.2564C56.8229 21.7043 57.2033 21.9498 57.7004 21.9498C58.1851 21.9498 58.5042 21.7104 58.6822 21.2809C58.8233 20.9495 58.9461 20.5875 58.9461 20.2316C58.989 18.8202 59.0688 17.4027 59.0688 15.9852ZM47.4035 12.8986C47.7287 11.3092 48.0355 9.75671 48.373 8.19806C48.7964 6.21599 49.2689 4.23393 49.6862 2.24573C49.7905 1.76095 49.9869 1.64436 50.4471 1.65663C51.4351 1.69345 52.4415 1.66891 53.4969 1.66891C53.1533 2.93301 52.8158 4.13575 52.4844 5.32008C51.4351 9.03874 50.3858 12.7697 49.3487 16.5006C49.2689 16.789 49.2321 17.102 49.2321 17.4088C49.2198 19.4461 49.2321 21.4773 49.2321 23.5146V24.1773H45.63C45.6178 23.9932 45.5932 23.8091 45.5932 23.625C45.5932 22.4714 45.5012 21.3116 45.6055 20.1702C45.8694 17.4272 44.998 14.9052 44.2923 12.3524C43.3596 8.97738 42.4146 5.59008 41.4818 2.21505C41.4327 2.0555 41.4143 1.88368 41.3652 1.68732H45.0409C45.8141 5.41212 46.5935 9.13693 47.4035 12.8986ZM117.88 17.1756H111.67C111.738 18.4213 111.762 19.6057 111.891 20.7777C111.983 21.5939 112.431 21.9436 113.137 21.9498C113.873 21.962 114.303 21.5939 114.474 20.7838C114.53 20.52 114.567 20.2561 114.591 19.9861C114.616 19.7468 114.628 19.4891 114.646 19.1454C115.696 19.2007 116.72 19.262 117.733 19.305C118.322 21.0539 117.26 23.2998 115.475 23.9932C114.069 24.5455 112.627 24.5455 111.191 24.1221C110.13 23.8091 109.338 23.1341 108.982 22.097C108.651 21.1275 108.338 20.115 108.271 19.1025C108.086 16.6049 108.019 14.0829 108.399 11.5792C108.467 11.1619 108.584 10.7631 108.712 10.3581C109.228 8.68897 110.351 7.66419 112.087 7.49237C113.032 7.40032 114.008 7.43714 114.941 7.59669C116.45 7.86055 117.254 8.9467 117.604 10.3703C117.764 11.0392 117.88 11.7265 117.905 12.4076C117.911 13.9724 117.88 15.5249 117.88 17.1756ZM114.352 15.0218C114.352 13.7883 114.364 12.6285 114.339 11.4626C114.339 11.1865 114.235 10.8981 114.131 10.6342C113.922 10.1188 113.486 9.97762 112.965 9.97762C112.443 9.97762 112.112 10.2415 111.983 10.714C111.59 12.1315 111.719 13.5797 111.731 15.034C112.67 15.0218 113.523 15.0218 114.352 15.0218Z" fill="#282828"/>
<path d="M77.6009 4.67577H73.9497V1.71802H84.848V4.65736H81.2214V24.1773H77.607L77.6009 4.67577Z" fill="#282828"/>
</svg>
